<?xml version="1.0" encoding="utf-8"?>
<!-- Generator: Adobe Illustrator 25.1.0, SVG Export Plug-In . SVG Version: 6.00 Build 0)  -->
<svg version="1.1" id="Capa_1" xmlns="http://www.w3.org/2000/svg" xmlns:xlink="http://www.w3.org/1999/xlink" x="0px" y="0px"
	 viewBox="0 0 512 512" style="enable-background:new 0 0 512 512;" xml:space="preserve">
<path d="M474.5,243.1h-10.4v-19.8c0-8.6-5.7-15.9-13.5-18.3L456,134c1.2-15.4-4.2-30.7-14.7-41.9S416,74.3,400.6,74.3H110.4
	C95,74.3,80.1,80.8,69.7,92S53.8,118.6,55,134l5.4,71.4c-7.3,2.7-12.5,9.7-12.5,17.9v19.8H37.5C16.8,243.1,0,259.9,0,280.6V327
	c0,20.7,16.8,37.5,37.5,37.5h4.1v4.9c0,14.7,11.9,26.6,26.6,26.6h0.7l8.4,29.5c2.1,7.2,8.7,12.2,16.2,12.2h11
	c7.5,0,14.2-5,16.2-12.2l8.4-29.5h252.7l8.4,29.5c2.1,7.2,8.7,12.2,16.2,12.2h11c7.5,0,14.2-5,16.2-12.2l8.4-29.5h0.7
	c14.7,0,26.6-11.9,26.6-26.6v-4.9h5.1c20.7,0,37.5-16.8,37.5-37.5v-46.4C512,259.9,495.2,243.1,474.5,243.1L474.5,243.1z
	 M80.8,102.3C88.5,94,99,89.4,110.4,89.4h290.2c11.4,0,21.9,4.6,29.6,12.9c7.7,8.3,11.5,19.2,10.7,30.5l-5.4,71.4h-17.2l5.5-72.7
	c0.7-8.8-3.6-14.8-6.1-17.6c-2.6-2.8-8.2-7.4-17.1-7.4h-37.5c-4.2,0-7.6,3.4-7.6,7.6s3.4,7.6,7.6,7.6h37.5c2.9,0,4.9,1.4,6,2.6
	c1.1,1.2,2.4,3.2,2.1,6.1l-5.6,73.8h-105c-10.5,0-19.1,8.6-19.1,19.1v19.8H233v-19.8c0-10.5-8.6-19.1-19.1-19.1h-106l-5.6-73.8
	c-0.2-2.9,1-5,2.1-6.1c1.1-1.2,3-2.6,6-2.6h220.5c4.2,0,7.6-3.4,7.6-7.6s-3.4-7.6-7.6-7.6H110.4c-8.8,0-14.5,4.7-17.1,7.4
	c-2.6,2.8-6.8,8.8-6.1,17.6l5.5,72.7H75.5l-5.4-71.4C69.2,121.5,73,110.7,80.8,102.3L80.8,102.3z M63,223.3c0-2.2,1.8-4,4-4h146.9
	c2.2,0,4,1.8,4,4v19.8H63L63,223.3z M106.2,421.3c-0.2,0.7-0.9,1.3-1.7,1.3h-11c-0.8,0-1.5-0.5-1.7-1.3L84.6,396h28.8L106.2,421.3z
	 M419.2,421.3c-0.2,0.7-0.9,1.3-1.7,1.3h-11c-0.8,0-1.5-0.5-1.7-1.3l-7.2-25.4h28.8L419.2,421.3z M496.9,327
	c0,12.3-10,22.3-22.3,22.3H110.8c-4.2,0-7.6,3.4-7.6,7.6s3.4,7.6,7.6,7.6h343.5v4.9c0,6.3-5.1,11.4-11.4,11.4H68.2
	c-6.3,0-11.4-5.1-11.4-11.4v-4.9h21.8c4.2,0,7.6-3.4,7.6-7.6s-3.4-7.6-7.6-7.6H37.5c-12.3,0-22.3-10-22.3-22.3v-46.4
	c0-12.3,10-22.3,22.3-22.3h347.9c4.2,0,7.6-3.4,7.6-7.6s-3.4-7.6-7.6-7.6h-91.2v-19.8c0-2.2,1.8-4,4-4H445c2.2,0,4,1.8,4,4v19.8
	h-31.4c-4.2,0-7.6,3.4-7.6,7.6s3.4,7.6,7.6,7.6h56.9c12.3,0,22.3,10,22.3,22.3L496.9,327L496.9,327z"/>
</svg>
