<?xml version="1.0" encoding="utf-8"?>
<!-- Generator: Adobe Illustrator 25.1.0, SVG Export Plug-In . SVG Version: 6.00 Build 0)  -->
<svg version="1.1" id="Capa_1" xmlns="http://www.w3.org/2000/svg" xmlns:xlink="http://www.w3.org/1999/xlink" x="0px" y="0px"
	 viewBox="0 0 512 512" style="enable-background:new 0 0 512 512;" xml:space="preserve">
<g>
	<path d="M74.5,414.5h-42c-9.6,0-17.5-7.9-17.5-17.5V115c0-9,6.7-16.5,15.6-17.4c0,0,0,0,0,0c0.6-0.1,1.2-0.1,1.9-0.1h367.3
		c4.1,0,7.5-3.4,7.5-7.5s-3.4-7.5-7.5-7.5H32.5c-1.1,0-2.3,0.1-3.4,0.2c0,0,0,0,0,0C12.5,84.4,0,98.3,0,115V397
		c0,17.9,14.6,32.5,32.5,32.5h42c4.1,0,7.5-3.4,7.5-7.5S78.6,414.5,74.5,414.5z"/>
	<path d="M479.5,82.5h-44.7c-4.1,0-7.5,3.4-7.5,7.5s3.4,7.5,7.5,7.5h44.7c9.6,0,17.5,7.9,17.5,17.5V397c0,8.2-5.8,15.4-13.8,17.1
		c0,0,0,0,0,0c-1.2,0.3-2.4,0.4-3.7,0.4c0,0,0,0,0,0h-370c-4.1,0-7.5,3.4-7.5,7.5s3.4,7.5,7.5,7.5h370h0c2.3,0,4.6-0.2,6.8-0.7
		c0,0,0,0,0,0c14.8-3.2,25.6-16.6,25.6-31.8V115C512,97,497.4,82.5,479.5,82.5L479.5,82.5z"/>
	<path d="M480.3,183.1c0-4.1-3.4-7.5-7.5-7.5H39.2c-4.1,0-7.5,3.4-7.5,7.5v145c0,4.1,3.4,7.5,7.5,7.5h433.6c4.1,0,7.5-3.4,7.5-7.5
		V183.1z M465.3,320.6H46.7v-130h418.6V320.6z"/>
	<path d="M72.4,278c1.5,6,9.2,7.7,13.1,2.9L96,268l10.4,13c3.9,4.8,11.6,3.1,13.1-2.9l10-40.5c1-4-1.5-8.1-5.5-9.1
		c-4-1-8.1,1.5-9.1,5.5l-6.4,25.8l-6.8-8.4c-3-3.7-8.7-3.7-11.7,0l-6.8,8.4L77,234c-1-4-5.1-6.5-9.1-5.5c-4,1-6.5,5.1-5.5,9.1
		L72.4,278z"/>
	<path d="M147,283.7h24.4c4.1,0,7.5-3.4,7.5-7.5s-3.4-7.5-7.5-7.5h-16.9v-5.2h16.9c4.1,0,7.5-3.4,7.5-7.5s-3.4-7.5-7.5-7.5h-16.9
		v-5.2h16.9c4.1,0,7.5-3.4,7.5-7.5s-3.4-7.5-7.5-7.5H147c-4.1,0-7.5,3.4-7.5,7.5v40.5C139.5,280.4,142.8,283.7,147,283.7z"/>
	<path d="M196.2,283.7h25.2c4.1,0,7.5-3.4,7.5-7.5s-3.4-7.5-7.5-7.5h-17.7v-33c0-4.1-3.4-7.5-7.5-7.5s-7.5,3.4-7.5,7.5v40.5
		C188.7,280.4,192,283.7,196.2,283.7z"/>
	<path d="M258,283.7h10.6c4.1,0,7.5-3.4,7.5-7.5s-3.4-7.5-7.5-7.5H258c-5.1,0-9.5-5.8-9.5-12.7c0-6.9,4.3-12.7,9.5-12.7h10.6
		c4.1,0,7.5-3.4,7.5-7.5s-3.4-7.5-7.5-7.5H258c-13.5,0-24.5,12.4-24.5,27.7C233.6,271.3,244.5,283.7,258,283.7z"/>
	<path d="M308,283.7c13,0,23.5-10.6,23.5-23.5v-8.4c0-13-10.6-23.5-23.5-23.5c-13,0-23.5,10.6-23.5,23.5v8.4
		C284.4,273.2,295,283.7,308,283.7z M299.4,251.8c0-4.7,3.8-8.5,8.5-8.5s8.5,3.8,8.5,8.5v8.4c0,4.7-3.8,8.5-8.5,8.5
		s-8.5-3.8-8.5-8.5V251.8z"/>
	<path d="M348.8,283.7c4.1,0,7.5-3.4,7.5-7.5v-22.5l9.4,9.3c2.9,2.9,7.6,2.9,10.6,0l9.4-9.3v22.5c0,4.1,3.4,7.5,7.5,7.5
		s7.5-3.4,7.5-7.5v-40.5c0-6.7-8.1-10-12.8-5.3l-16.9,16.7l-16.9-16.7c-4.7-4.7-12.8-1.3-12.8,5.3v40.5
		C341.3,280.4,344.6,283.7,348.8,283.7L348.8,283.7z"/>
	<path d="M417.9,283.7h24.5c4.1,0,7.5-3.4,7.5-7.5s-3.4-7.5-7.5-7.5h-17v-5.2h17c4.1,0,7.5-3.4,7.5-7.5s-3.4-7.5-7.5-7.5h-17v-5.2
		h17c4.1,0,7.5-3.4,7.5-7.5s-3.4-7.5-7.5-7.5h-24.5c-4.1,0-7.5,3.4-7.5,7.5v40.5C410.4,280.4,413.7,283.7,417.9,283.7z"/>
	<path d="M480.3,133.8c0-8.5-7-15.5-15.5-15.5H47.2c-8.5,0-15.5,7-15.5,15.5v20.2c0,4.1,3.4,7.5,7.5,7.5h433.6
		c4.1,0,7.5-3.4,7.5-7.5V133.8z M465.3,146.4H46.7v-12.7c0-0.3,0.2-0.5,0.5-0.5h417.6c0.3,0,0.5,0.2,0.5,0.5V146.4z"/>
	<path d="M472.8,349.8H39.2c-4.1,0-7.5,3.4-7.5,7.5v20.2c0,8.5,7,15.5,15.5,15.5h417.6c8.5,0,15.5-7,15.5-15.5v-20.2
		C480.3,353.1,477,349.8,472.8,349.8z M465.3,377.4c0,0.3-0.2,0.5-0.5,0.5H47.2c-0.3,0-0.5-0.2-0.5-0.5v-12.7h418.6V377.4z"/>
</g>
</svg>
