<?xml version="1.0" encoding="utf-8"?>
<!-- Generator: Adobe Illustrator 25.1.0, SVG Export Plug-In . SVG Version: 6.00 Build 0)  -->
<svg version="1.1" id="Capa_1" xmlns="http://www.w3.org/2000/svg" xmlns:xlink="http://www.w3.org/1999/xlink" x="0px" y="0px"
	 viewBox="0 0 512 512" style="enable-background:new 0 0 512 512;" xml:space="preserve">
<g>
	<path d="M155.3,88.9c4.1,0,7.5-3.4,7.5-7.5c0-4.1-3.4-7.5-7.5-7.5h-8.6c-4.1,0-7.5,3.4-7.5,7.5c0,4.1,3.4,7.5,7.5,7.5H155.3z"/>
	<path d="M249.2,88.9c4.1,0,7.5-3.4,7.5-7.5c0-4.1-3.4-7.5-7.5-7.5h-63.6c-4.1,0-7.5,3.4-7.5,7.5c0,4.1,3.4,7.5,7.5,7.5H249.2z"/>
	<path d="M393.2,160.7l1.8-30.6h3.3l1.6,14.2c0.9,8.6,8.1,15,16.8,15h5.2c9.3,0,16.9-7.6,16.9-16.9V93.1c0-17.2-14-31.2-31.2-31.2
		h-8.5l0.6-10h0.4c6.9,0,12.6-5.6,12.6-12.6V26.3c0-14.5-11.8-26.3-26.3-26.3h-30.5c-4.1,0-7.5,3.4-7.5,7.5s3.4,7.5,7.5,7.5h30.5
		c6.2,0,11.3,5.1,11.3,11.3V37H110.1V26.3c0-6.2,5.1-11.3,11.3-11.3h202.4c4.1,0,7.5-3.4,7.5-7.5S327.9,0,323.8,0H121.4
		c-14.5,0-26.3,11.8-26.3,26.3v13.1c0,6.7,5.3,12.2,11.9,12.6l2,33.6c0.2,4,3.5,7.1,7.5,7.1c0.1,0,0.3,0,0.4,0
		c4.1-0.2,7.3-3.8,7-7.9L122,52h262.5l-6.3,107.9c-0.7,12.7-11.3,22.7-24,22.7H152.4c-12.7,0-23.3-10-24-22.7l-2.5-43.2
		c-0.2-4.1-3.8-7.3-7.9-7c-4.1,0.2-7.3,3.8-7,7.9l2.5,43.2c1.1,18.1,14.3,32.7,31.5,36.1v23h-41.2c-16.7,0-30.3,13.6-30.3,30.3v11.7
		c0,8.3,6.7,15,15,15h2.4l3.8,56.5c3,43.9,39.8,78.4,83.9,78.4h6.4v46.6h-15.3c-17,0-30.8,13.8-30.8,30.8v15.4
		c0,4.1,3.4,7.5,7.5,7.5h213.7c4.1,0,7.5-3.4,7.5-7.5v-15.4c0-17-13.8-30.8-30.8-30.8h-15.3v-46.6h6.4c21.1,0,41.3-7.9,56.8-22.1
		c15.5-14.3,25.1-33.7,26.9-54.6c0.4-4.1-2.7-7.8-6.8-8.1c-4.1-0.4-7.8,2.7-8.1,6.8c-1.5,17.2-9.3,33.2-22.1,44.9
		c-12.8,11.7-29.4,18.2-46.7,18.2H178.6c-36.2,0-66.5-28.3-68.9-64.4l-3.8-55.5h294.7l-1.7,25c-0.3,4.1,2.8,7.7,7,8
		c0.2,0,0.3,0,0.5,0c3.9,0,7.2-3,7.5-7l1.8-26h3.4c8.3,0,15-6.7,15-15v-11.7c0-16.7-13.6-30.3-30.3-30.3h-42.2v-23
		C378.8,193.5,392.1,178.8,393.2,160.7L393.2,160.7z M407.4,76.9c8.9,0,16.2,7.3,16.2,16.2v49.4c0,1-0.8,1.9-1.9,1.9h-5.2
		c-1,0-1.8-0.7-1.9-1.7l-2.1-18.7c-0.6-5-4.8-8.8-9.8-8.8h-7l2.2-38.3L407.4,76.9z M352.6,489.1v7.9H153.9v-7.9
		c0-8.7,7.1-15.8,15.8-15.8h167.1C345.5,473.3,352.6,480.4,352.6,489.1z M306.5,458.3H200v-46.6h106.5V458.3z M419.1,250.1l0,11.7
		c0,0,0,0,0,0l-330.7-0.1v-11.7c0-8.5,6.9-15.3,15.3-15.3h300.1C412.3,234.8,419.1,241.7,419.1,250.1L419.1,250.1z M159.9,219.8
		v-22.3h186.8v22.3L159.9,219.8z"/>
</g>
</svg>
