<?xml version="1.0" encoding="utf-8"?>
<!-- Generator: Adobe Illustrator 25.1.0, SVG Export Plug-In . SVG Version: 6.00 Build 0)  -->
<svg version="1.1" id="Capa_1" xmlns="http://www.w3.org/2000/svg" xmlns:xlink="http://www.w3.org/1999/xlink" x="0px" y="0px"
	 viewBox="0 0 512 512" style="enable-background:new 0 0 512 512;" xml:space="preserve">
<g>
	<path d="M498.5,311.7h-60v-4c0-13.4-10.9-24.4-24.4-24.4H309.5c-13.4,0-24.4,10.9-24.4,24.4v4h-27.3c-0.3,0-0.5-0.1-0.8-0.2
		l-84-48.9c-6.5-3.8-13.9-5.8-21.4-5.8h-42.1v-182c0-15,12.2-27.2,27.2-27.2c15,0,27.2,12.2,27.2,27.2v14.4
		c-7.1,2.5-12.1,9.2-12.1,17.1v10.1h-1.5c-13.7,0-24.8,11.1-24.8,24.8v27.9c0,6.4,5.2,11.6,11.6,11.6h100.8
		c6.4,0,11.6-5.2,11.6-11.6v-27.9c0-13.7-11.1-24.8-24.8-24.8h-1.5v-10.1c0-7.9-5.1-14.6-12.1-17.1V74.7c0-40.9-33.3-74.2-74.2-74.2
		S62.5,33.8,62.5,74.7V163c0,4.2,3.4,7.5,7.5,7.5s7.5-3.4,7.5-7.5V74.7c0-32.6,26.5-59.1,59.1-59.1s59.1,26.5,59.1,59.1v13.3H179
		V74.7c0-23.3-19-42.3-42.3-42.3s-42.3,19-42.3,42.3v182H77.6v-61.6c0-4.2-3.4-7.5-7.5-7.5c-4.2,0-7.5,3.4-7.5,7.5v61.6h-49
		c-7.4,0-13.5,6-13.5,13.5v20.1c0,7.4,6.1,13.5,13.5,13.5h2.2v50.9c0,59.9,43.4,109.9,100.4,120.1v22.9c0,7.6,6.2,13.7,13.7,13.7
		h11.7c3.6,0,7-1.4,9.6-3.9l31.6-30.8h169.5l31.6,30.8c2.6,2.5,6,3.9,9.6,3.9H405c7.6,0,13.7-6.2,13.7-13.7v-26.9
		c16.4-5.3,31.6-14.1,44.6-25.9c3.1-2.8,3.3-7.6,0.5-10.7c-2.8-3.1-7.6-3.3-10.7-0.5c-19.7,18-45.3,27.9-72.1,27.9H137.7
		c-59,0-107-48-107-107v-50.9h19.6c4.2,0,7.5-3.4,7.5-7.5c0-4.2-3.4-7.5-7.5-7.5H15.1v-16.9h136.5c4.9,0,9.6,1.3,13.8,3.7l84,48.9
		c2.5,1.5,5.4,2.3,8.3,2.3h61v16.9h-61c-5.9,0-11.7-1.6-16.8-4.5L158.4,291c-2.5-1.5-5.4-2.3-8.3-2.3H82.5c-4.2,0-7.5,3.4-7.5,7.5
		s3.4,7.5,7.5,7.5H150c0.3,0,0.5,0.1,0.8,0.2l82.6,48.1c7.4,4.3,15.9,6.6,24.4,6.6h61v52.5c0,9,7.3,16.2,16.2,16.2h87.3
		c9,0,16.2-7.3,16.2-16.2v-52.5H488c-0.7,18.4-6.1,36.2-15.7,51.8c-2.2,3.6-1.1,8.2,2.5,10.4c1.2,0.8,2.6,1.1,3.9,1.1
		c2.5,0,5-1.3,6.4-3.6c11.2-18.2,17.4-39.1,17.9-60.6c5.2-1.9,8.9-6.8,8.9-12.7v-20.1C512,317.8,505.9,311.7,498.5,311.7
		L498.5,311.7z M234.3,141.2v24.4h-93.7v-24.4c0-5.4,4.4-9.7,9.7-9.7h9h56.2h9C229.9,131.5,234.3,135.8,234.3,141.2L234.3,141.2z
		 M166.8,116.4v-10.1c0-1.7,1.4-3.1,3.1-3.1h35c1.7,0,3.1,1.4,3.1,3.1v10.1H166.8z M403.7,474.7v21.7h-9.8l-20.1-19.6h7.4
		C388.8,476.8,396.3,476.1,403.7,474.7z M161.1,476.8l-20.1,19.6h-9.8v-19.8c2.2,0.1,4.4,0.2,6.6,0.2L161.1,476.8L161.1,476.8z
		 M300.3,311.7v-4c0-5.1,4.2-9.3,9.3-9.3c5.1,0,9.3,4.2,9.3,9.3v4H300.3z M423.4,411.3c0,0.6-0.5,1.1-1.1,1.1H335
		c-0.6,0-1.1-0.5-1.1-1.1V307.8c0-3.3-0.7-6.4-1.8-9.3h82.1c5.1,0,9.3,4.2,9.3,9.3L423.4,411.3z M438.5,326.8h58.4v16.9h-1.2
		c0,0,0,0,0,0s0,0,0,0h-57.1L438.5,326.8L438.5,326.8z"/>
	<path d="M151.7,197.5v27.2c0,4.2,3.4,7.5,7.5,7.5c4.2,0,7.5-3.4,7.5-7.5v-27.2c0-4.2-3.4-7.5-7.5-7.5
		C155.1,189.9,151.7,193.3,151.7,197.5z"/>
	<path d="M208,197.5v27.2c0,4.2,3.4,7.5,7.5,7.5c4.2,0,7.5-3.4,7.5-7.5v-27.2c0-4.2-3.4-7.5-7.5-7.5
		C211.3,189.9,208,193.3,208,197.5z"/>
	<path d="M179.9,226.2V243c0,4.2,3.4,7.5,7.5,7.5c4.2,0,7.5-3.4,7.5-7.5v-16.8c0-4.2-3.4-7.5-7.5-7.5
		C183.2,218.7,179.9,222,179.9,226.2z"/>
	<path d="M292.7,256.1c14.7,0,26.7-12,26.7-26.7c0-14.7-12-26.7-26.7-26.7s-26.7,12-26.7,26.7C266,244.1,278,256.1,292.7,256.1z
		 M292.7,217.8c6.4,0,11.6,5.2,11.6,11.6s-5.2,11.6-11.6,11.6c-6.4,0-11.6-5.2-11.6-11.6S286.3,217.8,292.7,217.8z"/>
	<path d="M351.1,229.4c0,12.8,10.4,23.3,23.3,23.3s23.3-10.4,23.3-23.3c0-12.8-10.4-23.3-23.3-23.3S351.1,216.5,351.1,229.4z
		 M382.5,229.4c0,4.5-3.7,8.2-8.2,8.2s-8.2-3.7-8.2-8.2c0-4.5,3.7-8.2,8.2-8.2S382.5,224.9,382.5,229.4z"/>
	<path d="M339.5,198.3c22.6,0,41-18.4,41-41s-18.4-41-41-41c-22.6,0-41,18.4-41,41S316.9,198.3,339.5,198.3L339.5,198.3z
		 M339.5,131.5c14.3,0,25.9,11.6,25.9,25.9s-11.6,25.9-25.9,25.9s-25.9-11.6-25.9-25.9S325.2,131.5,339.5,131.5z"/>
</g>
</svg>
