<?xml version="1.0" encoding="utf-8"?>
<!-- Generator: Adobe Illustrator 25.1.0, SVG Export Plug-In . SVG Version: 6.00 Build 0)  -->
<svg version="1.1" id="Layer_1" xmlns="http://www.w3.org/2000/svg" xmlns:xlink="http://www.w3.org/1999/xlink" x="0px" y="0px"
	 viewBox="0 0 254.2 135.6" style="enable-background:new 0 0 254.2 135.6;" xml:space="preserve">
<style type="text/css">
	.st0{fill:#939598;}
</style>
<g>
	<g>
		<path d="M119.8,71.2c-0.1,0-0.2,0-0.3,0C105.5,69.3,95,57.1,95,43c0-15.7,12.8-28.5,28.5-28.5c6,0,11.8,1.9,16.6,5.4
			c1,0.7,1.2,2.1,0.5,3.1c-0.7,1-2.1,1.2-3.1,0.5c-4.1-3-9-4.5-14.1-4.5c-13.3,0-24.1,10.8-24.1,24.1c0,12,8.9,22.2,20.8,23.8
			c1.2,0.2,2.1,1.3,1.9,2.5C121.9,70.4,120.9,71.2,119.8,71.2z"/>
		<path class="st0" d="M153.5,40.7h-25.8c-1.2,0-2.2,1-2.2,2.2c0,1.2,1,2.2,2.2,2.2h19.6c-1,11.1-9.6,20.3-20.8,21.7
			c-1.2,0.2-2.1,1.3-1.9,2.5c0.2,1.1,1.1,1.9,2.2,1.9c0.1,0,0.2,0,0.3,0c13.4-1.8,23.6-12.8,24.6-26.1h1.7c1.2,0,2.2-1,2.2-2.2
			C155.7,41.7,154.7,40.7,153.5,40.7z"/>
	</g>
	<g>
		<g>
			<path d="M123.9,97.7c-0.3,0.5-0.6,1-0.9,1.4c-0.4,0.5-0.8,0.9-1.3,1.3c-0.5,0.4-1,0.7-1.5,0.9c-0.5,0.2-1.1,0.4-1.7,0.4
				c-1,0-1.9-0.2-2.8-0.5c-0.9-0.4-1.6-0.9-2.2-1.5c-0.6-0.7-1.1-1.4-1.5-2.4c-0.4-1-0.5-2-0.5-3.2c0-1.2,0.2-2.3,0.6-3.2
				c0.4-1,0.9-1.8,1.5-2.4c0.6-0.7,1.4-1.2,2.2-1.5c0.9-0.4,1.8-0.5,2.8-0.5c1.2,0,2.2,0.3,3,1c0.9,0.6,1.7,1.7,2.4,3.1l1.3-0.9
				c-0.4-0.6-0.8-1.1-1.3-1.6c-0.5-0.5-1.1-1-1.7-1.4c-0.6-0.4-1.3-0.7-2.1-1c-0.8-0.2-1.6-0.4-2.5-0.4c-1.4,0-2.7,0.2-3.9,0.7
				c-1.2,0.5-2.2,1.1-3,2c-0.8,0.8-1.5,1.8-1.9,2.9c-0.5,1.1-0.7,2.2-0.7,3.4c0,1.2,0.2,2.3,0.7,3.4c0.5,1.1,1.1,2,1.9,2.8
				c0.8,0.8,1.8,1.4,3,1.9c1.2,0.5,2.4,0.7,3.9,0.7c1,0,1.9-0.1,2.6-0.4c0.8-0.2,1.5-0.6,2.1-1c0.6-0.4,1.2-0.9,1.7-1.4
				c0.5-0.5,0.9-1.1,1.2-1.6L123.9,97.7z"/>
			<path d="M139.6,92.6c0.8-0.8,1.1-1.7,1.1-2.8c0-0.7-0.1-1.2-0.4-1.8c-0.3-0.5-0.7-1-1.2-1.4c-0.5-0.4-1.2-0.7-1.9-0.9
				c-0.8-0.2-1.7-0.3-2.7-0.3h-5.9v17.1h2.9v-8h2l5.9,8h3.3l-6.2-8.3C137.8,93.9,138.8,93.4,139.6,92.6z M134.9,93.4
				c-0.5,0.2-1.1,0.2-1.8,0.2h-1.7v-7.1h2.5c0.5,0,1,0.1,1.4,0.3c0.5,0.2,0.8,0.4,1.2,0.7c0.3,0.3,0.6,0.7,0.8,1.1
				c0.2,0.4,0.3,0.9,0.3,1.4c0,0.6-0.1,1.1-0.3,1.5c-0.2,0.4-0.5,0.8-0.9,1.2C135.9,92.9,135.5,93.2,134.9,93.4z"/>
			<polygon points="156.8,101.4 147.8,101.4 147.8,93.7 153.8,93.7 153.8,92.6 147.8,92.6 147.8,86.5 156.8,86.5 156.8,85.4 
				144.9,85.4 144.9,102.5 156.8,102.5 			"/>
			<polygon points="173.6,86.5 179.8,86.5 179.8,102.5 182.6,102.5 182.6,86.5 188.8,86.5 188.8,85.4 173.6,85.4 			"/>
			<rect x="191.5" y="85.4" width="2.9" height="17.1"/>
			<polygon points="205.6,102.9 213.3,85.4 212,85.4 206,99 199.6,85.4 196.5,85.4 204.8,102.9 			"/>
			<path d="M225.6,95.9L225.6,95.9c0.5,0,0.9-0.4,0.9-0.8c0-0.4-0.4-0.8-0.8-0.8h-0.8l-4.3-9.2h-0.7l-8.2,17.5h1.5l6.4-13.5l2.5,5.3
				h-3.2c-0.4,0-0.8,0.4-0.8,0.8c0,0.5,0.4,0.8,0.8,0.8h3.9l3.1,6.6h2.9L225.6,95.9z"/>
			<path d="M162.5,95.7L162.5,95.7l3.2-6.7l2.3,5.1l0.1,0.2h-2.6c-0.5,0-0.8,0.4-0.8,0.8c0,0.5,0.4,0.8,0.8,0.8h3.4l3.2,6.6h2.7
				l-3-6.6c0.4,0,0.7-0.4,0.7-0.8c0-0.4-0.4-0.8-0.8-0.8H171l-4.3-9.2h-0.7l-8.2,17.5h1.4L162.5,95.7z"/>
			<path d="M32,102c0.5-0.2,1-0.5,1.5-0.7v-6.5h0.7c0.4,0,0.6-0.3,0.6-0.6c0-0.3-0.3-0.6-0.6-0.6h-6.6c-0.4,0-0.6,0.3-0.6,0.6
				c0,0.2,0.1,0.4,0.3,0.5v0.1h0.1c0.1,0,0.1,0,0.2,0h2.9v6c-0.5,0.4-1,0.7-1.6,0.9c-0.6,0.2-1.3,0.3-2.1,0.3c-1,0-2-0.2-2.9-0.6
				c-0.9-0.4-1.7-0.9-2.4-1.6c-0.7-0.7-1.2-1.5-1.6-2.5c-0.4-1-0.6-2.1-0.6-3.3c0-1.2,0.2-2.3,0.5-3.3c0.4-1,0.8-1.8,1.5-2.5
				c0.6-0.7,1.4-1.2,2.3-1.6c0.9-0.4,1.8-0.6,2.9-0.6c1.2,0,2.2,0.3,3.1,1c0.9,0.6,1.7,1.7,2.4,3.1l1.3-0.9
				c-0.4-0.6-0.8-1.1-1.3-1.7c-0.5-0.5-1.1-1-1.7-1.4c-0.6-0.4-1.3-0.7-2.1-1c-0.8-0.2-1.6-0.4-2.5-0.4c-1.4,0-2.7,0.3-3.9,0.7
				c-1.2,0.5-2.2,1.2-3.1,2c-0.9,0.8-1.5,1.8-2,2.9c-0.5,1.1-0.7,2.3-0.7,3.5c0,1.2,0.2,2.4,0.7,3.4c0.5,1.1,1.2,2,2.1,2.8
				c0.9,0.8,1.9,1.4,3.1,1.9c1.2,0.5,2.5,0.7,4,0.7c0.9,0,1.7,0,2.4-0.1c0.7-0.1,1.4-0.2,1.9-0.3C30.9,102.4,31.5,102.2,32,102z"/>
			<path d="M48.6,92.5c0.8-0.8,1.2-1.7,1.2-2.8c0-0.7-0.1-1.3-0.4-1.8c-0.3-0.6-0.7-1-1.2-1.4c-0.5-0.4-1.2-0.7-2-0.9
				c-0.8-0.2-1.7-0.3-2.7-0.3h-6v17.2h2.9v-8.1h2l6,8.1h3.3l-6.3-8.4C46.8,93.8,47.8,93.3,48.6,92.5z M43.9,93.3
				c-0.5,0.2-1.1,0.3-1.8,0.3h-1.7v-7.2H43c0.5,0,1,0.1,1.5,0.3c0.5,0.2,0.8,0.4,1.2,0.7c0.3,0.3,0.6,0.7,0.8,1.1
				c0.2,0.4,0.3,0.9,0.3,1.4c0,0.6-0.1,1.1-0.3,1.5c-0.2,0.5-0.5,0.8-1,1.2C44.9,92.9,44.4,93.1,43.9,93.3z"/>
			<path d="M55.2,101c0.6,0.6,1.4,1.1,2.3,1.4c0.9,0.3,2,0.5,3.2,0.5c1.3,0,2.5-0.2,3.4-0.5c0.9-0.4,1.7-0.8,2.3-1.4
				c0.6-0.6,1.1-1.3,1.3-2c0.3-0.8,0.4-1.6,0.4-2.5V85.3h-1.3v11.2c0,0.7-0.1,1.4-0.4,2.1c-0.2,0.6-0.6,1.2-1.1,1.7
				c-0.5,0.5-1,0.9-1.7,1.2c-0.7,0.3-1.4,0.4-2.2,0.4c-0.8,0-1.5-0.1-2.2-0.4c-0.7-0.3-1.2-0.7-1.7-1.2c-0.5-0.5-0.8-1.1-1.1-1.7
				c-0.2-0.6-0.4-1.3-0.4-2.1V85.3h-2.9v11.1c0,0.9,0.2,1.7,0.5,2.5C54.1,99.7,54.5,100.4,55.2,101z"/>
			<path d="M83.7,92.2c0.3-0.6,0.5-1.3,0.5-2c0-0.8-0.2-1.5-0.5-2.1c-0.3-0.6-0.8-1.1-1.4-1.6c-0.6-0.4-1.3-0.7-2.1-0.9
				c-0.8-0.2-1.6-0.3-2.5-0.3h-5.5v17.2h2.9v-8c0.2,0,0.4,0.1,0.6,0.1c0.3,0,0.6,0.1,0.9,0.1c0.3,0,0.6,0,1,0.1c0.3,0,0.6,0,1,0
				c0.7,0,1.4-0.1,2.1-0.3c0.7-0.2,1.3-0.5,1.8-0.9C82.9,93.3,83.3,92.8,83.7,92.2z M80.8,91.8c-0.2,0.4-0.4,0.8-0.7,1.1
				c-0.3,0.3-0.7,0.6-1.2,0.8c-0.5,0.2-1,0.3-1.6,0.3c-0.4,0-0.8,0-1.1-0.1c-0.4-0.1-0.7-0.2-1-0.3v-7h2.1c0.5,0,1,0.1,1.5,0.3
				c0.5,0.2,0.9,0.4,1.2,0.8c0.4,0.3,0.6,0.7,0.8,1.2c0.2,0.5,0.3,1,0.3,1.6C81,90.9,80.9,91.3,80.8,91.8z"/>
			<path d="M105,93.8c0-1.2-0.3-2.4-0.7-3.5c-0.5-1.1-1.2-2-2-2.8c-0.9-0.8-1.9-1.4-3-1.9c-1.2-0.5-2.4-0.7-3.7-0.7
				c-1.3,0-2.6,0.2-3.7,0.7c-1.2,0.5-2.2,1.1-3,1.9c-0.8,0.8-1.5,1.8-2,2.8c-0.5,1.1-0.7,2.2-0.7,3.5c0,1.3,0.2,2.4,0.7,3.5
				c0.5,1.1,1.2,2.1,2,2.9c0.9,0.8,1.9,1.5,3,2c1.2,0.5,2.4,0.7,3.7,0.7c1.3,0,2.6-0.2,3.7-0.7c1.2-0.5,2.2-1.1,3-2
				c0.9-0.8,1.5-1.8,2-2.9C104.7,96.2,105,95,105,93.8z M101.2,97.1c-0.3,1-0.7,1.9-1.2,2.6c-0.5,0.7-1.2,1.3-1.9,1.7
				c-0.8,0.4-1.6,0.6-2.6,0.6c-1,0-1.9-0.2-2.7-0.6c-0.8-0.4-1.4-1-1.9-1.7c-0.5-0.7-0.9-1.6-1.2-2.6c-0.3-1-0.4-2.1-0.4-3.3
				c0-1.2,0.1-2.3,0.4-3.3c0.3-1,0.6-1.8,1.2-2.5c0.5-0.7,1.1-1.3,1.9-1.7c0.8-0.4,1.6-0.6,2.7-0.6c1,0,1.9,0.2,2.6,0.6
				c0.8,0.4,1.4,0.9,1.9,1.7c0.5,0.7,0.9,1.6,1.2,2.5c0.3,1,0.4,2.1,0.4,3.3C101.6,95,101.4,96.1,101.2,97.1z"/>
			<polygon points="37.2,110.9 29.7,110.9 29.7,112 32.8,112 32.8,121.1 34.1,121.1 34.1,112 37.2,112 			"/>
			<path d="M42.5,116.6c0-1.5-0.5-3-2.8-3c-0.9,0-1.8,0.3-2.4,0.7l0.3,0.9c0.5-0.3,1.2-0.5,1.9-0.5c1.5,0,1.7,1.1,1.7,1.7v0.2
				c-2.8,0-4.4,1-4.4,2.7c0,1.1,0.8,2.1,2.2,2.1c1,0,1.8-0.5,2.2-1.1h0l0.1,0.9h1.2c-0.1-0.5-0.1-1.1-0.1-1.8V116.6z M41.2,118.6
				c0,0.1,0,0.3-0.1,0.4c-0.2,0.6-0.8,1.2-1.8,1.2c-0.7,0-1.3-0.4-1.3-1.3c0-1.4,1.6-1.7,3.1-1.6V118.6z"/>
			<path d="M48.5,113.6c-1.2,0-2.1,0.5-2.6,1.4h0l-0.1-1.3h-1.2c0,0.7,0.1,1.5,0.1,2.4v7.9H46v-4h0c0.4,0.7,1.3,1.2,2.3,1.2
				c1.7,0,3.3-1.3,3.3-3.9C51.6,115.1,50.2,113.6,48.5,113.6z M48,120.2c-1,0-1.8-0.6-2-1.6c0-0.2-0.1-0.3-0.1-0.5v-1.3
				c0-0.2,0-0.4,0.1-0.5c0.3-1,1.1-1.6,2-1.6c1.4,0,2.2,1.3,2.2,2.7C50.2,119.1,49.4,120.2,48,120.2z"/>
			<path d="M56.2,113.6c-2.1,0-3.4,1.7-3.4,4c0,2.2,1.3,3.7,3.6,3.7c1.2,0,2-0.2,2.4-0.5l-0.2-1c-0.5,0.2-1.1,0.4-2,0.4
				c-1.3,0-2.5-0.7-2.5-2.5h5.1c0-0.1,0-0.3,0-0.6C59.2,115.7,58.5,113.6,56.2,113.6z M54,116.7c0.1-0.9,0.7-2.2,2-2.2
				c1.5,0,1.9,1.3,1.8,2.2H54z"/>
			<path d="M62.4,111.7l-1.3,0.3v1.8H60v1h1.1v4c0,0.9,0.1,1.5,0.5,1.9c0.3,0.4,0.8,0.6,1.4,0.6c0.5,0,0.9-0.1,1.2-0.2l-0.1-1
				c-0.2,0-0.4,0.1-0.8,0.1c-0.7,0-1-0.5-1-1.4v-4h1.9v-1h-1.9V111.7z"/>
			<path d="M68.7,113.6c-2.1,0-3.4,1.7-3.4,4c0,2.2,1.3,3.7,3.6,3.7c1.2,0,2-0.2,2.4-0.5l-0.2-1c-0.5,0.2-1.1,0.4-2,0.4
				c-1.3,0-2.5-0.7-2.5-2.5h5.1c0-0.1,0-0.3,0-0.6C71.7,115.7,71,113.6,68.7,113.6z M66.5,116.7c0.1-0.9,0.7-2.2,2-2.2
				c1.5,0,1.9,1.3,1.8,2.2H66.5z"/>
			<path d="M75.7,116.8c-1-0.4-1.4-0.6-1.4-1.2c0-0.5,0.4-1,1.2-1c0.7,0,1.2,0.2,1.5,0.4l0.3-1c-0.4-0.2-1.1-0.5-1.8-0.5
				c-1.6,0-2.5,1-2.5,2.1c0,0.9,0.6,1.6,1.9,2.1c1,0.4,1.4,0.7,1.4,1.3c0,0.6-0.5,1.1-1.4,1.1c-0.7,0-1.4-0.3-1.8-0.5l-0.3,1
				c0.5,0.3,1.3,0.5,2.1,0.5c1.7,0,2.7-0.9,2.7-2.2C77.6,118,77,117.3,75.7,116.8z"/>
			<path d="M83.6,115.6c-0.9,0-1.6,0.7-1.6,1.6c0,0.9,0.7,1.6,1.6,1.6c0.9,0,1.6-0.7,1.6-1.6C85.1,116.3,84.4,115.6,83.6,115.6z"/>
			<path d="M92.8,110.8c-1,0-2,0.1-2.8,0.2v10c0.7,0.1,1.5,0.1,2.4,0.1c2,0,3.6-0.5,4.5-1.5c1-0.9,1.5-2.3,1.5-4
				c0-1.7-0.5-2.8-1.4-3.7C96.1,111.3,94.7,110.8,92.8,110.8z M92.7,120.1c-0.5,0-1,0-1.3-0.1V112c0.3-0.1,0.9-0.1,1.5-0.1
				c2.8,0,4.1,1.5,4.1,3.9C97,118.6,95.5,120.1,92.7,120.1z"/>
			<rect x="100.1" y="113.8" width="1.3" height="7.3"/>
			<path d="M100.7,110.9c-0.5,0-0.8,0.4-0.8,0.8c0,0.5,0.3,0.8,0.8,0.8c0.5,0,0.9-0.4,0.8-0.8C101.6,111.2,101.2,110.9,100.7,110.9z
				"/>
			<path d="M106,116.8c-1-0.4-1.4-0.6-1.4-1.2c0-0.5,0.4-1,1.2-1c0.7,0,1.2,0.2,1.5,0.4l0.3-1c-0.4-0.2-1.1-0.5-1.8-0.5
				c-1.6,0-2.5,1-2.5,2.1c0,0.9,0.6,1.6,1.9,2.1c1,0.4,1.4,0.7,1.4,1.3c0,0.6-0.5,1.1-1.4,1.1c-0.7,0-1.4-0.3-1.8-0.5l-0.3,1
				c0.5,0.3,1.3,0.5,2.1,0.5c1.7,0,2.7-0.9,2.7-2.2C107.9,118,107.2,117.3,106,116.8z"/>
			<path d="M112.5,113.6c-2.1,0-3.4,1.7-3.4,4c0,2.2,1.3,3.7,3.6,3.7c1.2,0,2-0.2,2.4-0.5l-0.2-1c-0.5,0.2-1.1,0.4-2,0.4
				c-1.3,0-2.5-0.7-2.5-2.5h5.1c0-0.1,0-0.3,0-0.6C115.5,115.7,114.9,113.6,112.5,113.6z M110.4,116.7c0.1-0.9,0.7-2.2,2-2.2
				c1.5,0,1.9,1.3,1.8,2.2H110.4z"/>
			<path d="M119.6,111.8c0.2,0,0.3,0.1,0.7,0.3c0.3,0.2,0.6,0.3,0.9,0.3c0.7,0,1.1-0.5,1-1.5h-0.7c0,0.5-0.2,0.7-0.4,0.7
				c-0.2,0-0.4-0.1-0.6-0.3c-0.3-0.2-0.6-0.3-0.9-0.3c-0.7,0-1.1,0.6-1,1.6h0.7C119.2,112.1,119.3,111.8,119.6,111.8z"/>
			<path d="M120.8,113.6c-1.2,0-2.1,0.7-2.4,1.4h0l-0.1-1.2h-1.2c0,0.6,0.1,1.2,0.1,2v5.3h1.3v-4.4c0-0.2,0-0.5,0.1-0.6
				c0.2-0.7,0.9-1.4,1.8-1.4c1.3,0,1.7,1,1.7,2.2v4.2h1.3v-4.4C123.4,114.2,121.9,113.6,120.8,113.6z"/>
			<path d="M128.7,113.6c-2,0-3.6,1.4-3.6,3.9c0,2.3,1.5,3.8,3.5,3.8c1.8,0,3.6-1.2,3.6-3.9C132.2,115.1,130.8,113.6,128.7,113.6z
				 M128.6,120.3c-1.3,0-2.2-1.2-2.2-2.8c0-1.4,0.7-2.8,2.3-2.8s2.2,1.6,2.2,2.8C130.9,119.1,129.9,120.3,128.6,120.3z"/>
			<path d="M138.1,115.6c-0.9,0-1.6,0.7-1.6,1.6c0,0.9,0.7,1.6,1.6,1.6c0.9,0,1.6-0.7,1.6-1.6C139.7,116.3,139,115.6,138.1,115.6z"
				/>
			<path d="M147.4,110.8c-1,0-2,0.1-2.8,0.2v10c0.7,0.1,1.5,0.1,2.4,0.1c2,0,3.6-0.5,4.5-1.5c1-0.9,1.5-2.3,1.5-4
				c0-1.7-0.5-2.8-1.4-3.7C150.7,111.3,149.3,110.8,147.4,110.8z M147.3,120.1c-0.5,0-1,0-1.3-0.1V112c0.3-0.1,0.9-0.1,1.5-0.1
				c2.8,0,4.1,1.5,4.1,3.9C151.6,118.6,150.1,120.1,147.3,120.1z"/>
			<path d="M157.6,113.6c-2.1,0-3.4,1.7-3.4,4c0,2.2,1.3,3.7,3.6,3.7c1.2,0,2-0.2,2.4-0.5l-0.2-1c-0.5,0.2-1.1,0.4-2,0.4
				c-1.3,0-2.5-0.7-2.5-2.5h5.1c0-0.1,0-0.3,0-0.6C160.6,115.7,160,113.6,157.6,113.6z M155.5,116.7c0.1-0.9,0.7-2.2,2-2.2
				c1.5,0,1.9,1.3,1.8,2.2H155.5z"/>
			<path d="M165.7,114.7c0.7,0,1.2,0.2,1.5,0.3l0.3-1c-0.4-0.2-1.1-0.4-1.8-0.4c-2.4,0-3.9,1.6-3.9,3.9c0,2.2,1.4,3.7,3.6,3.7
				c1,0,1.8-0.2,2.1-0.4l-0.2-1c-0.4,0.2-0.9,0.4-1.6,0.4c-1.5,0-2.5-1-2.5-2.7C163.1,115.9,164,114.7,165.7,114.7z"/>
			<path d="M172.1,113.6c-2,0-3.6,1.4-3.6,3.9c0,2.3,1.5,3.8,3.5,3.8c1.8,0,3.6-1.2,3.6-3.9C175.6,115.1,174.2,113.6,172.1,113.6z
				 M172,120.3c-1.3,0-2.2-1.2-2.2-2.8c0-1.4,0.7-2.8,2.3-2.8c1.6,0,2.2,1.6,2.2,2.8C174.2,119.1,173.3,120.3,172,120.3z"/>
			<path d="M178.5,115.2L178.5,115.2l-0.1-1.4h-1.2c0,0.7,0.1,1.4,0.1,2.3v5h1.3v-3.9c0-0.2,0-0.4,0.1-0.6c0.2-1,0.8-1.7,1.8-1.7
				c0.2,0,0.3,0,0.5,0v-1.3c-0.1,0-0.2,0-0.4,0C179.6,113.6,178.8,114.2,178.5,115.2z"/>
			<path d="M187.3,116.6c0-1.5-0.5-3-2.8-3c-0.9,0-1.8,0.3-2.4,0.7l0.3,0.9c0.5-0.3,1.2-0.5,1.9-0.5c1.5,0,1.7,1.1,1.7,1.7v0.2
				c-2.8,0-4.4,1-4.4,2.7c0,1.1,0.8,2.1,2.2,2.1c1,0,1.8-0.5,2.2-1.1h0l0.1,0.9h1.2c-0.1-0.5-0.1-1.1-0.1-1.8V116.6z M186,118.6
				c0,0.1,0,0.3-0.1,0.4c-0.2,0.6-0.8,1.2-1.8,1.2c-0.7,0-1.3-0.4-1.3-1.3c0-1.4,1.7-1.7,3.1-1.6V118.6z"/>
			<path d="M192.9,114.7c0.7,0,1.2,0.2,1.5,0.3l0.3-1c-0.4-0.2-1.1-0.4-1.8-0.4c-2.4,0-3.9,1.6-3.9,3.9c0,2.2,1.4,3.7,3.6,3.7
				c1,0,1.8-0.2,2.1-0.4l-0.2-1c-0.4,0.2-0.9,0.4-1.6,0.4c-1.5,0-2.5-1-2.5-2.7C190.3,115.9,191.2,114.7,192.9,114.7z"/>
			<path d="M196.9,110.9c-0.5,0-0.8,0.4-0.8,0.8c0,0.5,0.3,0.8,0.8,0.8c0.5,0,0.9-0.4,0.8-0.8C197.7,111.2,197.4,110.9,196.9,110.9z
				"/>
			<rect x="196.2" y="113.8" width="1.3" height="7.3"/>
			<polygon points="203,112.8 204.8,110.6 203.3,110.6 202,112.8 			"/>
			<path d="M202.9,113.6c-2,0-3.6,1.4-3.6,3.9c0,2.3,1.5,3.8,3.5,3.8c1.8,0,3.6-1.2,3.6-3.9C206.4,115.1,205,113.6,202.9,113.6z
				 M202.8,120.3c-1.3,0-2.2-1.2-2.2-2.8c0-1.4,0.7-2.8,2.3-2.8c1.6,0,2.2,1.6,2.2,2.8C205,119.1,204.1,120.3,202.8,120.3z"/>
			<path d="M211.7,113.6c-1.2,0-2.1,0.7-2.4,1.4h0l-0.1-1.2H208c0,0.6,0.1,1.2,0.1,2v5.3h1.3v-4.4c0-0.2,0-0.5,0.1-0.6
				c0.2-0.7,0.9-1.4,1.8-1.4c1.3,0,1.7,1,1.7,2.2v4.2h1.3v-4.4C214.3,114.2,212.7,113.6,211.7,113.6z"/>
		</g>
		<g>
			<g>
				<path d="M234.6,87.9c0,1.7-1.3,3-3,3c-1.7,0-3-1.3-3-3c0-1.6,1.4-3,3-3C233.3,85,234.6,86.3,234.6,87.9z M229.3,87.9
					c0,1.3,1,2.4,2.3,2.4c1.3,0,2.3-1,2.3-2.3c0-1.3-1-2.4-2.3-2.4C230.3,85.6,229.3,86.6,229.3,87.9z M231.2,89.5h-0.7v-3
					c0.3-0.1,0.6-0.1,1.1-0.1c0.6,0,0.8,0.1,1,0.2c0.2,0.1,0.3,0.4,0.3,0.6c0,0.3-0.3,0.6-0.6,0.7v0c0.3,0.1,0.5,0.3,0.5,0.7
					c0.1,0.4,0.1,0.6,0.2,0.7h-0.7c-0.1-0.1-0.1-0.4-0.2-0.7c-0.1-0.3-0.2-0.5-0.6-0.5h-0.3V89.5z M231.2,87.8h0.3
					c0.4,0,0.7-0.1,0.7-0.4c0-0.3-0.2-0.5-0.6-0.5c-0.2,0-0.3,0-0.4,0V87.8z"/>
			</g>
		</g>
	</g>
</g>
</svg>
