<?xml version="1.0" encoding="utf-8"?>
<!-- Generator: Adobe Illustrator 25.1.0, SVG Export Plug-In . SVG Version: 6.00 Build 0)  -->
<svg version="1.1" id="Capa_1" xmlns="http://www.w3.org/2000/svg" xmlns:xlink="http://www.w3.org/1999/xlink" x="0px" y="0px"
	 viewBox="0 0 512 512" style="enable-background:new 0 0 512 512;" xml:space="preserve">
<g>
	<path d="M450,207.2l-27.7-30.6c5.4-9.1,7.3-19.7,5.4-30.2c-2.1-11.5-8.6-21.6-18.2-28.2l-39.9-27.6c0.3-6.4-0.9-12.9-3.6-19
		c-4.6-10.8-13.2-19.1-24.1-23.4L253.7,13c-10.7-4.3-22.4-4.2-32.8,0.1C212.9,5,201.8,0,189.6,0h-95C70.3,0,50.6,19.7,50.6,43.9
		v376.7c0,50.4,41,91.4,91.4,91.4c22.9,0,43.9-8.5,60-22.5c0.2-0.2,0.5-0.3,0.7-0.5l171.2-154c3.1-2.8,3.3-7.5,0.6-10.6
		c-2.8-3.1-7.5-3.3-10.6-0.6l-7.1,6.3l-22.9-25.3l36-52l32.7,36.2l-14.9,13.4c-3.1,2.8-3.3,7.5-0.6,10.6c1.5,1.7,3.5,2.5,5.6,2.5
		c1.8,0,3.6-0.6,5-1.9l49.2-44.2c8.7-7.9,13.8-18.6,14.4-30.4C461.9,227.2,457.9,215.9,450,207.2L450,207.2z M412.9,149.2
		c1.4,7.6-0.3,15.3-4.7,21.6l-20.4,29.5l-46.5-32.1l24.6-61.7l35,24.2C407.3,135,411.6,141.6,412.9,149.2L412.9,149.2z M341.5,267.3
		l-31.1-21.5l25.3-63.4l43.6,30.2L341.5,267.3z M295.1,334.4l-15.7-10.8l25.3-63.4l28.2,19.5L295.1,334.4z M306.7,214.6l-21.8-8.7
		c-3.9-1.5-8.2,0.3-9.8,4.2c-1.5,3.9,0.3,8.2,4.2,9.8l21.8,8.7l-25.8,64.8l-41.8-16.7v-75.1l15.9,6.3c0.9,0.4,1.9,0.5,2.8,0.5
		c3,0,5.8-1.8,7-4.7c1.5-3.9-0.3-8.2-4.2-9.8l-21.5-8.6v-75.1l99,39.5L306.7,214.6z M218.5,167.7h-85.2c-4.2,0-7.5,3.4-7.5,7.5
		c0,4.2,3.4,7.5,7.5,7.5h85.2v69.7H65.7v-69.7h35.6c4.2,0,7.5-3.4,7.5-7.5c0-4.2-3.4-7.5-7.5-7.5H65.7V98h152.8L218.5,167.7
		L218.5,167.7z M65.7,267.5h152.8v69.7H65.7V267.5z M233.5,292.9l36.2,14.4l-36.2,90.8V292.9z M280.3,382.2l8.3,9.2l-39,35.1
		L280.3,382.2z M247.9,402.7l25.8-64.8l12.8,8.9L247.9,402.7z M248.1,26.9l88.3,35.2c7.2,2.9,12.8,8.3,15.8,15.4
		c2.1,4.9,2.8,10.1,2.1,15.2c0,0.1,0,0.1,0,0.2c-0.3,2.3-0.9,4.5-1.8,6.7l-14.5,36.3L233.5,94.2V43.9c0-6.4-1.4-12.5-3.9-18
		C235.7,24.2,242.1,24.5,248.1,26.9L248.1,26.9z M94.5,15h95c15.9,0,28.9,12.9,28.9,28.9v39H65.7v-39C65.7,28,78.6,15,94.5,15z
		 M65.7,420.6v-68.3h152.8v68.3c0,42.1-34.3,76.4-76.4,76.4S65.7,462.7,65.7,420.6z M345.6,340.2l-45.8,41.2l-10.7-11.9l36-52
		L345.6,340.2z M446.3,238.1c-0.4,7.7-3.7,14.8-9.5,19.9l-23.1,20.8L378.6,240l35-50.6l25.2,27.9C444,223,446.7,230.4,446.3,238.1
		L446.3,238.1z"/>
	<path d="M140.4,384.8c-19.9,0-36.1,16.2-36.1,36.1s16.2,36.1,36.1,36.1s36.1-16.2,36.1-36.1S160.2,384.8,140.4,384.8z M140.4,441.9
		c-11.6,0-21-9.4-21-21c0-11.6,9.4-21,21-21c11.6,0,21,9.4,21,21C161.4,432.4,152,441.9,140.4,441.9z"/>
</g>
</svg>
