<?xml version="1.0" encoding="utf-8"?>
<!-- Generator: Adobe Illustrator 25.1.0, SVG Export Plug-In . SVG Version: 6.00 Build 0)  -->
<svg version="1.1" id="Capa_1" xmlns="http://www.w3.org/2000/svg" xmlns:xlink="http://www.w3.org/1999/xlink" x="0px" y="0px"
	 viewBox="0 0 422.8 422.8" style="enable-background:new 0 0 422.8 422.8;" xml:space="preserve">
<g>
	<g>
		<path d="M416.6,82.1L340.8,6.2C332.6-2,319.3-2,311,6.2l-83.6,83.2l-21,21l-20.9,21L80.8,236.2l-21,21L6.1,310.8
			c-8.2,8.2-8.2,21.5,0,29.8l76,76c8.2,8.2,21.5,8.2,29.8,0l304.7-304.7C424.8,103.6,424.8,90.3,416.6,82.1z M409.7,104.9
			L104.9,409.6c-4.4,4.1-11.2,4.1-15.5,0l-76-76c-4.3-4.3-4.3-11.2,0-15.5l50-50.3l39.1,39.1c1.9,2.1,5.1,2.2,7.1,0.3
			s2.2-5.1,0.3-7.1c-0.1-0.1-0.2-0.2-0.3-0.3l-39.1-39.1l13.8-13.8l17.8,17.8c1.9,2.1,5.1,2.2,7.1,0.3s2.2-5.1,0.3-7.1
			c-0.1-0.1-0.2-0.2-0.3-0.3l-17.8-17.8l13.8-13.8l17.8,17.8c2.1,1.9,5.2,1.7,7.1-0.3c1.8-1.9,1.8-4.9,0-6.8l-17.8-17.8l13.8-13.8
			l39.1,39.1c2.1,1.9,5.2,1.7,7.1-0.3c1.8-1.9,1.8-4.9,0-6.8l-39.1-39.1l13.8-13.8l17.8,17.8c1.9,2.1,5.1,2.2,7.1,0.3
			s2.2-5.1,0.3-7.1c-0.1-0.1-0.2-0.2-0.3-0.3l-17.8-17.8l13.8-13.8l17.8,17.8c2.1,1.9,5.2,1.7,7.1-0.3c1.8-1.9,1.8-4.9,0-6.8
			l-17.6-17.8l13.8-13.8l39.1,39.1c2.2,1.7,5.4,1.3,7.1-0.9c1.4-1.8,1.4-4.4,0-6.3l-39.2-39.1l13.8-13.8l17.8,17.8
			c1.9,2.1,5.1,2.2,7.1,0.3c2.1-1.9,2.2-5.1,0.3-7.1c-0.1-0.1-0.2-0.2-0.3-0.3l-17.8-17.8l13.8-13.8l17.8,17.8
			c2.1,1.9,5.2,1.7,7.1-0.3c1.8-1.9,1.8-4.9,0-6.8l-17.8-17.8L252,79.1l39.1,39.1c2.1,1.9,5.2,1.7,7.1-0.3c1.8-1.9,1.8-4.9,0-6.8
			L259.1,72L273,58.1l17.8,17.8c2.1,1.9,5.2,1.7,7.1-0.3c1.8-1.9,1.8-4.9,0-6.8L280.1,51l13.8-13.8l39.1,39.1
			c2.1,1.9,5.2,1.7,7.1-0.3c1.8-1.9,1.8-4.9,0-6.8l-39.1-39.1l16.9-16.9c4.4-4.1,11.2-4.1,15.5,0l76,76c4.3,4.3,4.3,11.2,0,15.5
			L409.7,104.9z"/>
	</g>
</g>
<g>
	<g>
		<path d="M91.5,331.4C91.5,331.4,91.5,331.4,91.5,331.4c-9.6-9.6-25.2-9.6-34.8,0c-9.6,9.6-9.6,25.2,0,34.8
			c9.6,9.6,25.2,9.6,34.8,0C101.1,356.6,101.1,341,91.5,331.4z M84.4,359L84.4,359c-5.7,5.8-14.9,5.8-20.6,0.1s-5.7-14.9,0-20.6
			s14.9-5.7,20.6,0c0,0,0,0,0,0C90,344.2,90,353.3,84.4,359z"/>
	</g>
</g>
</svg>
