<?xml version="1.0" encoding="utf-8"?>
<!-- Generator: Adobe Illustrator 25.1.0, SVG Export Plug-In . SVG Version: 6.00 Build 0)  -->
<svg version="1.1" id="Capa_1" xmlns="http://www.w3.org/2000/svg" xmlns:xlink="http://www.w3.org/1999/xlink" x="0px" y="0px"
	 viewBox="0 0 512 512" style="enable-background:new 0 0 512 512;" xml:space="preserve">
<path d="M454.2,232.8h24.3c18.5,0,33.5-15,33.5-33.5s-15-33.5-33.5-33.5h-8.2c-1.1-22.9-7.6-35.8-13-46.4h21.2
	c18.5,0,33.5-15,33.5-33.5s-15-33.5-33.5-33.5h-16.8c6.1-13.5,7.6-25.8-1.1-38.2C454.3,5.4,444,0,433,0c-14.4,0-27.2,9.2-31.9,23
	c-3.2,9.4-9,16.9-13.6,29.5h-39.1c1-2.3,2.1-4.7,3-7.4c3.7-10.3,2.2-21.8-4.1-30.8C340.9,5.4,330.6,0,319.7,0
	c-14.4,0-27.2,9.2-31.9,23c-1.5,4.4-3.7,8.6-6,12.9c-2.5,4.8-5.3,10.1-7.7,16.6H235c1-2.3,2.1-4.7,3-7.4c3.7-10.3,2.2-21.8-4.1-30.8
	C227.6,5.4,217.3,0,206.3,0c-14.4,0-27.2,9.2-31.9,23c-1.5,4.4-3.7,8.6-6,12.9c-2.5,4.8-5.3,10-7.6,16.6h-39.1
	c6.1-13.4,7.6-25.8-1.1-38.2C114.2,5.4,103.9,0,93,0C78.6,0,65.7,9.2,61,23c-3.2,9.4-9.1,16.9-13.6,29.5H33.5C15,52.5,0,67.5,0,86
	s15,33.5,33.5,33.5h67c1,2.1,2.1,4.1,3.1,6.1c5.9,11.3,11.9,23.1,11.9,47.6v0.1c0,0,0,0,0,0.1c0,0,0,0,0,0
	c-0.1,44.5-22,49.4-22,82.6c0,9.4,1.7,16.5,4.4,23.2H58.8c-1.6-6.9-2.3-14.6-2.3-23.2c0-46.4,22-48.3,22-82.8
	c0-14.1-4.1-23.5-8.3-31.8c-1.9-3.7-6.4-5.2-10.1-3.3s-5.2,6.4-3.3,10.1c2.8,5.5,5.2,10.8,6.2,17.7H33.5C15,165.8,0,180.9,0,199.3
	s15,33.5,33.5,33.5h9.9c-2.6,13.9-2.7,31.9,0,46.4h-10C15,279.2,0,294.2,0,312.7s15,33.5,33.5,33.5H63
	c-2.3,16.2-12.7,24.4-18.2,46.4H33.5C15,392.5,0,407.6,0,426s15,33.5,33.5,33.5h14C52,471.8,57.8,479.9,61,489
	c4.8,13.7,17.6,23,31.9,23c10.9,0,21.2-5.4,27.6-14.3c6.3-8.9,7.8-20.4,4.1-30.7c-1-2.7-2-5.1-3-7.5h39.3
	c4.4,12.2,10.4,20.4,13.5,29.5c4.8,13.7,17.6,23,31.9,23c11,0,21.3-5.4,27.6-14.3c6.3-8.9,7.8-20.4,4.1-30.7c-1-2.7-2-5.1-3-7.5
	h39.3c4.5,12.3,10.3,20.3,13.5,29.5c4.8,13.7,17.6,23,31.9,23c11,0,21.3-5.4,27.6-14.3c6.3-8.9,7.8-20.4,4.1-30.7
	c-1-2.7-2-5.1-3-7.5h39.3c4.5,12.3,10.3,20.3,13.5,29.5c4.8,13.7,17.6,23,31.9,23c11,0,21.2-5.4,27.6-14.3c9-12.8,7-25.2,1.1-38.2
	h16.9c18.5,0,33.5-15,33.5-33.5s-15-33.5-33.5-33.5h-21.2c5.4-10.3,11.9-23.1,13-46.4h8.2c18.5,0,33.5-15,33.5-33.5
	s-15-33.5-33.5-33.5h-24.2C446.3,262.8,446.7,248.1,454.2,232.8L454.2,232.8z M33.5,217.8c-10.2,0-18.5-8.3-18.5-18.5
	s8.3-18.5,18.5-18.5h29.4c-2,13.7-9.7,21.3-15.4,37H33.5z M497,199.3c0,10.2-8.3,18.5-18.5,18.5c-30.4,0-104.8,0-130,0
	c4-8.9,7.7-20.2,8.5-37h121.5C488.7,180.8,497,189.1,497,199.3z M243.6,331.2c-0.9-16.6-4.5-28-8.6-37c3.4,0,149.1,0,152.6,0
	c5.7,15.4,13.3,23.7,15.3,37H243.6z M271.4,392.5h-40.8c5.4-10.3,11.9-23.1,13-46.4h46C287.4,362.3,277,370.6,271.4,392.5z
	 M173.6,392.5c6.1-19.8,18.2-28.5,18.2-53.7c0-24.6-12.2-34.1-18.2-54c0-0.2-0.1-0.4-0.2-0.6c-4.6-15.6-4.6-36.9-1.4-51.4h39.1
	c-8.6,21.8-3.4,40.6,5.8,58.4c5.8,11.3,11.9,23,11.9,47.4c0,0,0,0,0,0c0,0,0,0,0,0.1v0.1c0,24.9-6,36.4-11.9,47.5
	c-1.1,2-2.2,4.1-3.2,6.2L173.6,392.5L173.6,392.5z M117.3,392.5c5.4-10.3,11.9-23.1,13-46.4h46c-2.3,16.2-12.8,24.5-18.3,46.4H117.3
	z M168.4,144.8c3.7,7.1,6.7,13.1,7.9,21.1h-46c-1.1-22.9-7.6-35.8-13-46.4h40.9C160.9,130.2,164.9,138,168.4,144.8z M130.3,180.8
	h159.4c-3.2,21.6-21.5,30-21.5,75.2c0,8.4,0.7,16.1,2,23.2h-42.6c-8-16.4-7.6-31.1-0.1-46.4h16.8c4.1,0,7.5-3.4,7.5-7.5
	s-3.4-7.5-7.5-7.5c-12.1,0-109,0-122.6,0C125.8,208.9,129.4,197.6,130.3,180.8L130.3,180.8z M403,165.8h-46
	c-1.1-22.9-7.6-35.8-13-46.4h40.9C390.5,141.4,400.6,149.8,403,165.8L403,165.8z M327.2,119.5c1,2.1,2.1,4.1,3.1,6.1
	c9.1,17.7,11.7,27.6,11.9,47.8c0,24.8-6,36.2-11.9,47.2c-10.2,19.4-13.9,38-5.8,58.6h-39.1c-1.6-6.9-2.3-14.6-2.3-23.2
	c0-24.9,6-36.4,11.9-47.4c23.7-45.1-0.1-63.8-8-89.1L327.2,119.5L327.2,119.5z M271.5,119.5c5.5,21.6,15.8,30.4,18.2,46.4h-46
	c-1.1-22.9-7.6-35.8-13-46.4H271.5z M383.5,279.2H341c-7.9-16.3-7.7-31-0.1-46.4h42.6C381,246.3,380.7,264.4,383.5,279.2
	L383.5,279.2z M497,86c0,10.2-8.3,18.5-18.5,18.5h-27.9c-1.3-4.1-2.1-8.6-2.1-14.1c0-9.8,2.3-16.2,5.6-22.9h24.4
	C488.7,67.5,497,75.8,497,86L497,86z M415.3,27.8C417.9,20.2,425,15,433,15c6.2,0,11.7,2.9,15.3,7.9c13,18.4-14.8,33.5-14.8,67.4
	c0,31.6,19.7,37.4,21.8,75.5h-37.2c-3.1-28.1-21.6-33-21.6-75.5C396.5,54.7,408.9,46.5,415.3,27.8z M382.2,104.5h-50.1
	c-0.1,0-0.2,0-0.3,0h-54.2c-0.1,0-0.2,0-0.3,0h-53.5c-1.3-4.1-2.1-8.6-2.1-14.1c0-9.8,2.3-16.2,5.6-22.9h52c0.1,0,0.1,0,0.2,0
	c0.1,0,0.1,0,0.2,0H336c0.1,0,0.2,0,0.2,0h47.2C381.3,79.4,381.1,93.4,382.2,104.5z M295,42.9c2.5-4.7,5-9.5,6.9-15
	c2.6-7.7,9.8-12.8,17.7-12.8c6.2,0,11.7,2.9,15.3,7.9c3.5,5,4.4,11.3,2.3,17.1c-1.7,4.6-3.6,8.6-5.6,12.5h-41.3
	C291.8,49.1,293.4,45.9,295,42.9z M188.6,27.8c2.6-7.7,9.8-12.8,17.7-12.8c6.2,0,11.7,2.9,15.3,7.9c13,18.5-14.8,33.4-14.8,67.4
	c0,31.5,19.7,37.3,21.8,75.5h-37.2c-3.1-27.7-21.6-33.6-21.6-75.5C169.8,54.7,182.2,46.5,188.6,27.8L188.6,27.8z M75.2,27.8
	C77.9,20.2,85,15,93,15c6.2,0,11.7,2.9,15.3,7.9c6.9,9.8,2.2,18.9-3.3,29.5H63.6C67.4,43.8,72.1,37,75.2,27.8z M15,86
	c0-10.2,8.3-18.5,18.5-18.5h123.2c-2.2,11.9-2.4,25.9-1.2,37h-122C23.3,104.5,15,96.2,15,86z M114.2,232.8h42.6
	c-2.5,13.5-2.7,31.6,0.1,46.4h-42.6C106.3,262.9,106.6,248.2,114.2,232.8z M15,312.7c0-10.2,8.3-18.5,18.5-18.5H161
	c5.7,15.4,13.3,23.7,15.3,37H33.5C23.3,331.2,15,322.9,15,312.7L15,312.7z M33.5,444.5c-10.2,0-18.5-8.3-18.5-18.5
	s8.3-18.5,18.5-18.5h8.7c-0.4,4.3-0.7,9-0.7,14.1c0,8.8,0.7,16.4,2,22.9L33.5,444.5L33.5,444.5z M108.2,489.1
	c-3.5,5-9.1,7.9-15.3,7.9c-8,0-15.1-5.2-17.8-12.9c-6.4-18.5-18.7-27.6-18.7-62.5c0-43,18.6-47.1,21.6-75.5h37.2
	c-2.1,38.9-21.8,43.1-21.8,75.5c0,22.9,10.8,33.2,17,50.4C112.6,477.8,111.7,484,108.2,489.1z M223.8,472c2.1,5.8,1.2,12-2.3,17
	c-3.5,5-9.1,7.9-15.3,7.9c-8,0-15.1-5.2-17.8-12.9c-3.1-8.9-7.7-16-11.5-24.6h41.3C220.2,463.4,222.2,467.4,223.8,472L223.8,472z
	 M114.1,444.5c-6.4-13.3-7-26.1-3.6-37h158.4c-0.4,4.3-0.7,9-0.7,14.1c0,8.8,0.7,16.4,2,22.9C247.5,444.5,136,444.5,114.1,444.5z
	 M334.9,489.1c-3.5,5-9.1,7.9-15.3,7.9c-8,0-15.1-5.2-17.8-12.9c-6.4-18.5-18.7-27.6-18.7-62.5c0-43.1,18.6-47.1,21.6-75.5H342
	c-1.1,19.9-6.4,30.2-11.7,40.1c-22.9,43.5-1.4,62.9,6.9,85.8C339.3,477.8,338.4,484,334.9,489.1z M448.2,489.1
	c-3.5,5-9.1,7.9-15.3,7.9c-8,0-15.1-5.2-17.8-12.9c-3.1-8.9-7.7-16-11.5-24.6h41.3C450.4,470.2,455.1,479.3,448.2,489.1z M497,426
	c0,10.2-8.3,18.5-18.5,18.5H340.8c-3.3-6.8-5.6-13.3-5.6-22.9c0-5.6,0.8-10.1,2-14.1h107.9c0.1,0,0.1,0,0.2,0s0.1,0,0.2,0h33.1
	C488.7,407.5,497,415.8,497,426z M344,392.5c5.4-10.3,11.9-23.1,13-46.4h46c-1,7-3.3,12.1-5.9,17.1c-1.9,3.7-0.4,8.2,3.3,10.1
	c3.7,1.9,8.2,0.4,10.1-3.3c3.9-7.6,8-16.9,8-31.2c0-24.6-12.2-34.1-18.2-54c-4.9-19.1-4.7-37.6-1.5-52h39.1
	c-8.1,20.6-4.3,39,5.8,58.4c5.8,11.3,11.9,23,11.9,47.4c0,0,0,0,0,0c0,0,0,0,0,0.1v0.1c0,24.9-6,36.4-11.9,47.5
	c-1.1,2-2.2,4.1-3.2,6.2L344,392.5L344,392.5z M497,312.7c0,10.2-8.3,18.5-18.5,18.5h-8.2c-0.9-16.6-4.5-28-8.6-37h16.8
	C488.7,294.2,497,302.5,497,312.7L497,312.7z"/>
</svg>
